G75*
%MOIN*%
%OFA0B0*%
%FSLAX25Y25*%
%IPPOS*%
%LPD*%
%AMOC8*
5,1,8,0,0,1.08239X$1,22.5*
%
%ADD10C,0.00000*%
%ADD11C,0.00600*%
D10*
X0001300Y0008800D02*
X0001300Y0202261D01*
X0105001Y0202261D01*
X0105001Y0008800D01*
X0001300Y0008800D01*
X0107800Y0008800D02*
X0107800Y0202261D01*
X0211501Y0202261D01*
X0211501Y0008800D01*
X0107800Y0008800D01*
D11*
X0106300Y0001300D02*
X0106300Y0214300D01*
X0110600Y0210089D02*
X0114867Y0208311D01*
X0117575Y0210089D02*
X0121841Y0210089D01*
X0124139Y0214000D02*
X0126272Y0207600D01*
X0128406Y0214000D01*
X0130633Y0212578D02*
X0130633Y0209022D01*
X0130635Y0208948D01*
X0130641Y0208873D01*
X0130651Y0208800D01*
X0130664Y0208726D01*
X0130681Y0208654D01*
X0130703Y0208583D01*
X0130727Y0208512D01*
X0130756Y0208444D01*
X0130788Y0208376D01*
X0130824Y0208311D01*
X0130862Y0208248D01*
X0130905Y0208186D01*
X0130950Y0208127D01*
X0130998Y0208070D01*
X0131049Y0208016D01*
X0131103Y0207965D01*
X0131160Y0207917D01*
X0131219Y0207872D01*
X0131281Y0207829D01*
X0131344Y0207791D01*
X0131409Y0207755D01*
X0131477Y0207723D01*
X0131545Y0207694D01*
X0131616Y0207670D01*
X0131687Y0207648D01*
X0131759Y0207631D01*
X0131833Y0207618D01*
X0131906Y0207608D01*
X0131981Y0207602D01*
X0132055Y0207600D01*
X0133477Y0207600D01*
X0135927Y0208667D02*
X0135927Y0211867D01*
X0133477Y0214000D02*
X0132055Y0214000D01*
X0131981Y0213998D01*
X0131906Y0213992D01*
X0131833Y0213982D01*
X0131759Y0213969D01*
X0131687Y0213952D01*
X0131616Y0213930D01*
X0131545Y0213906D01*
X0131477Y0213877D01*
X0131409Y0213845D01*
X0131344Y0213809D01*
X0131281Y0213771D01*
X0131219Y0213728D01*
X0131160Y0213683D01*
X0131103Y0213635D01*
X0131049Y0213584D01*
X0130998Y0213529D01*
X0130950Y0213473D01*
X0130905Y0213414D01*
X0130862Y0213352D01*
X0130824Y0213289D01*
X0130788Y0213224D01*
X0130756Y0213156D01*
X0130727Y0213088D01*
X0130703Y0213017D01*
X0130681Y0212946D01*
X0130664Y0212874D01*
X0130651Y0212800D01*
X0130641Y0212727D01*
X0130635Y0212652D01*
X0130633Y0212578D01*
X0135927Y0208667D02*
X0135929Y0208603D01*
X0135935Y0208538D01*
X0135944Y0208475D01*
X0135958Y0208412D01*
X0135975Y0208350D01*
X0135996Y0208289D01*
X0136021Y0208229D01*
X0136049Y0208171D01*
X0136081Y0208115D01*
X0136116Y0208061D01*
X0136154Y0208009D01*
X0136195Y0207959D01*
X0136240Y0207913D01*
X0136286Y0207868D01*
X0136336Y0207827D01*
X0136388Y0207789D01*
X0136442Y0207754D01*
X0136498Y0207722D01*
X0136556Y0207694D01*
X0136616Y0207669D01*
X0136677Y0207648D01*
X0136739Y0207631D01*
X0136802Y0207617D01*
X0136865Y0207608D01*
X0136930Y0207602D01*
X0136994Y0207600D01*
X0138772Y0207600D01*
X0138772Y0211867D01*
X0140955Y0211867D02*
X0143088Y0211867D01*
X0141666Y0214000D02*
X0141666Y0208667D01*
X0141668Y0208603D01*
X0141674Y0208538D01*
X0141683Y0208475D01*
X0141697Y0208412D01*
X0141714Y0208350D01*
X0141735Y0208289D01*
X0141760Y0208229D01*
X0141788Y0208171D01*
X0141820Y0208115D01*
X0141855Y0208061D01*
X0141893Y0208009D01*
X0141934Y0207959D01*
X0141979Y0207913D01*
X0142025Y0207868D01*
X0142075Y0207827D01*
X0142127Y0207789D01*
X0142181Y0207754D01*
X0142237Y0207722D01*
X0142295Y0207694D01*
X0142355Y0207669D01*
X0142416Y0207648D01*
X0142478Y0207631D01*
X0142541Y0207617D01*
X0142604Y0207608D01*
X0142669Y0207602D01*
X0142733Y0207600D01*
X0143088Y0207600D01*
X0114867Y0211867D02*
X0110600Y0210089D01*
M02*
