%
M48
M72
T01C0.03937
T02C0.04724
%
T01
X13300Y173300
X33300Y173300
X48300Y170800
X48300Y180800
X48300Y160800
X58300Y150800
X68300Y150800
X78300Y150800
X78300Y160800
X78300Y170800
X78300Y180800
X93300Y180800
X93300Y170800
X93300Y160800
X93300Y150800
X93300Y140800
X93300Y130800
X78300Y120800
X68300Y120800
X68300Y110800
X78300Y110800
X93300Y110800
X119800Y105800
X129800Y105800
X139800Y105800
X154800Y110800
X164800Y110800
X164800Y120800
X174800Y120800
X184800Y120800
X184800Y110800
X174800Y110800
X199800Y110800
X199800Y130800
X199800Y140800
X199800Y150800
X199800Y160800
X199800Y170800
X199800Y180800
X199800Y190800
X184800Y180800
X184800Y170800
X184800Y160800
X184800Y150800
X174800Y150800
X164800Y150800
X154800Y160800
X154800Y170800
X154800Y180800
X139800Y173300
X119800Y173300
X119300Y152300
X129300Y152300
X148800Y145300
X148800Y125300
X129800Y125800
X119800Y125800
X93300Y80800
X78300Y80800
X68300Y80800
X58300Y80800
X48300Y80800
X33300Y75800
X23300Y75800
X13300Y75800
X32800Y62800
X42800Y62800
X52800Y63800
X53300Y52800
X53300Y42800
X53300Y32800
X53300Y22800
X42800Y22800
X42800Y32800
X32800Y32800
X32800Y22800
X22800Y22800
X12800Y22800
X15300Y42800
X15300Y52800
X13300Y105800
X23300Y105800
X33300Y105800
X48300Y110800
X58300Y110800
X58300Y120800
X42300Y125300
X23300Y125800
X13300Y125800
X12800Y152300
X22800Y152300
X42300Y145300
X93300Y190800
X154800Y80800
X164800Y80800
X174800Y80800
X184800Y80800
X199800Y80800
X201300Y63800
X201300Y53800
X189800Y52800
X189800Y42800
X189800Y32800
X189800Y22800
X159800Y22800
X159800Y32800
X159800Y42800
X159800Y52800
X159300Y63800
X149300Y62800
X139300Y62800
X139800Y75800
X129800Y75800
X119800Y75800
X121800Y52800
X121800Y42800
X139300Y32800
X139300Y22800
X129300Y22800
X119300Y22800
X149300Y22800
X149300Y32800
X189300Y63800
X94800Y63800
X94800Y53800
X83300Y52800
X83300Y42800
X83300Y32800
X83300Y22800
X82800Y63800
T02
X139800Y190800
X119800Y190800
X159800Y190800
X53300Y190800
X33300Y190800
X13300Y190800
M30
